<svg width="56" height="56" viewBox="0 0 56 56" fill="none" xmlns="http://www.w3.org/2000/svg">
<rect x="0.5" y="0.5" width="55" height="55" rx="27.5" fill="#1F1F1F"/>
<rect x="0.5" y="0.5" width="55" height="55" rx="27.5" stroke="#333333"/>
<path fill-rule="evenodd" clip-rule="evenodd" d="M24.25 19.75L35.5 19.75C35.6989 19.75 35.8897 19.829 36.0303 19.9697C36.171 20.1103 36.25 20.3011 36.25 20.5V31.75C36.25 32.1642 35.9142 32.5 35.5 32.5C35.0858 32.5 34.75 32.1642 34.75 31.75V22.3107L21.0303 36.0303C20.7374 36.3232 20.2626 36.3232 19.9697 36.0303C19.6768 35.7374 19.6768 35.2626 19.9697 34.9697L33.6893 21.25L24.25 21.25C23.8358 21.25 23.5 20.9142 23.5 20.5C23.5 20.0858 23.8358 19.75 24.25 19.75Z" fill="#E7BEB1"/>
</svg>
