<svg width="56" height="57" viewBox="0 0 56 57" fill="none" xmlns="http://www.w3.org/2000/svg">
<rect x="0.5" y="1" width="55" height="55" rx="9.5" fill="#1F1F1F"/>
<rect x="0.5" y="1" width="55" height="55" rx="9.5" stroke="#333333"/>
<path d="M16.333 22.0834C16.333 19.1839 18.6835 16.8334 21.583 16.8334C24.4825 16.8334 26.833 19.1839 26.833 22.0834V25.5834C26.833 25.9902 26.833 26.1937 26.7883 26.3606C26.6669 26.8135 26.3131 27.1673 25.8602 27.2887C25.6933 27.3334 25.4899 27.3334 25.083 27.3334H21.583C18.6835 27.3334 16.333 24.9829 16.333 22.0834Z" fill="#CE7D63"/>
<path d="M29.1663 31.4167C29.1663 31.0098 29.1663 30.8064 29.2111 30.6395C29.3324 30.1866 29.6862 29.8328 30.1391 29.7114C30.306 29.6667 30.5095 29.6667 30.9163 29.6667H34.4163C37.3158 29.6667 39.6663 32.0172 39.6663 34.9167C39.6663 37.8162 37.3158 40.1667 34.4163 40.1667C31.5168 40.1667 29.1663 37.8162 29.1663 34.9167V31.4167Z" fill="#CE7D63"/>
<path d="M16.333 34.9167C16.333 32.0172 18.6835 29.6667 21.583 29.6667H24.733C25.4681 29.6667 25.8356 29.6667 26.1164 29.8098C26.3633 29.9356 26.5641 30.1364 26.69 30.3833C26.833 30.6641 26.833 31.0316 26.833 31.7667V34.9167C26.833 37.8162 24.4825 40.1667 21.583 40.1667C18.6835 40.1667 16.333 37.8162 16.333 34.9167Z" fill="#CE7D63"/>
<path d="M29.1663 22.0834C29.1663 19.1839 31.5168 16.8334 34.4163 16.8334C37.3158 16.8334 39.6663 19.1839 39.6663 22.0834C39.6663 24.9829 37.3158 27.3334 34.4163 27.3334H30.6663C30.4922 27.3334 30.4051 27.3334 30.3319 27.3251C29.7234 27.2566 29.2432 26.7763 29.1746 26.1678C29.1663 26.0946 29.1663 26.0075 29.1663 25.8334V22.0834Z" fill="#CE7D63"/>
</svg>
