<svg width="60" height="60" viewBox="0 0 60 60" fill="none" xmlns="http://www.w3.org/2000/svg">
<rect x="0.5" y="0.5" width="59" height="59" rx="7.5" fill="#1F1F1F"/>
<rect x="0.5" y="0.5" width="59" height="59" rx="7.5" stroke="#333333"/>
<path d="M27.9468 22.7118L37.2867 32.0518C37.9901 32.7552 39.1306 32.7552 39.834 32.0518C40.5374 31.3484 40.5374 30.2079 39.834 29.5045L38.5604 28.2309L40.2585 26.5327C42.1343 24.657 42.1343 21.6158 40.2585 19.7401C38.3828 17.8643 35.3416 17.8643 33.4659 19.7401L31.7677 21.4382L30.4941 20.1646C29.7907 19.4612 28.6502 19.4612 27.9468 20.1646C27.2434 20.868 27.2434 22.0084 27.9468 22.7118Z" fill="#CE7D63"/>
<path d="M27.983 25.2229L21.4924 31.7135C20.9604 32.2455 20.6944 32.5115 20.5255 32.8301C20.4129 33.0427 20.3329 33.2709 20.288 33.5072C20.2209 33.8615 20.2624 34.2354 20.3455 34.9831L20.4071 35.5377C20.4298 35.7417 20.4411 35.8437 20.444 35.9416C20.4612 36.5348 20.2583 37.1134 19.8742 37.5659C19.8108 37.6405 19.7382 37.7131 19.5931 37.8583L18.8596 38.5917C18.1562 39.2952 18.1562 40.4356 18.8596 41.139C19.563 41.8424 20.7034 41.8424 21.4068 41.139L22.1404 40.4055C22.2855 40.2603 22.3581 40.1878 22.4327 40.1244C22.8851 39.7403 23.4638 39.5373 24.057 39.5546C24.1549 39.5575 24.2569 39.5688 24.4609 39.5915L25.0154 39.6531C25.7632 39.7362 26.1371 39.7777 26.4914 39.7105C26.7277 39.6657 26.9559 39.5857 27.1684 39.473C27.4871 39.3042 27.7531 39.0382 28.2851 38.5062L29.9632 36.8279L27.8009 34.6655C27.4592 34.3238 27.4592 33.7698 27.8009 33.4281C28.1426 33.0864 28.6966 33.0864 29.0383 33.4281L31.2007 35.5905L32.2966 34.4945L30.1342 32.3322C29.7925 31.9905 29.7925 31.4365 30.1342 31.0947C30.4759 30.753 31.0299 30.753 31.3716 31.0947L33.5341 33.2572L34.7757 32.0156L27.983 25.2229Z" fill="#CE7D63"/>
</svg>
