<svg width="66" height="66" viewBox="0 0 66 66" fill="none" xmlns="http://www.w3.org/2000/svg">
<rect x="0.5" y="0.5" width="65" height="65" rx="11.5" fill="#1F1F1F"/>
<rect x="0.5" y="0.5" width="65" height="65" rx="11.5" stroke="#333333"/>
<path d="M21.7306 23.7798L23.7795 21.7309C25.7113 19.7991 26.6771 18.8333 27.8774 18.8333C29.0776 18.8333 30.0435 19.7991 31.9752 21.7309L28.5604 25.1457L21.7306 31.9755L21.7306 31.9754C19.7989 30.0437 18.833 29.0778 18.833 27.8776C18.833 26.6774 19.7989 25.7115 21.7306 23.7798L21.7306 23.7798Z" fill="#CE7D63"/>
<path d="M44.2687 42.2201L42.2198 44.269C40.2881 46.2007 39.3222 47.1666 38.122 47.1666C36.9218 47.1666 35.9559 46.2007 34.0242 44.269L34.0241 44.269L40.8539 37.4392L44.2687 34.0244C46.2005 35.9561 47.1663 36.922 47.1663 38.1222C47.1663 39.3224 46.2005 40.2883 44.2687 42.2201Z" fill="#CE7D63"/>
<path d="M32.1498 41.7283L32.1498 41.7282L42.6273 31.2508C41.2013 30.6573 39.5123 29.6824 37.915 28.085C36.3174 26.4875 35.3425 24.7982 34.749 23.3721L24.2713 33.8498L24.2713 33.8498C23.4537 34.6674 23.0449 35.0763 22.6933 35.527C22.2785 36.0588 21.9229 36.6341 21.6328 37.2429C21.3869 37.7589 21.204 38.3074 20.8384 39.4044L18.9101 45.1891C18.7302 45.729 18.8707 46.3242 19.2731 46.7265C19.6754 47.1289 20.2706 47.2694 20.8104 47.0894L26.5952 45.1612C27.6922 44.7955 28.2407 44.6127 28.7567 44.3668C29.3655 44.0766 29.9408 43.7211 30.4726 43.3063C30.9233 42.9547 31.3322 42.5459 32.1498 41.7283Z" fill="#CE7D63"/>
<path d="M45.5347 28.3434C47.7102 26.1678 47.7102 22.6405 45.5347 20.4649C43.3591 18.2894 39.8318 18.2894 37.6562 20.4649L36.3995 21.7216C36.4167 21.7735 36.4346 21.8262 36.4531 21.8796C36.9137 23.2072 37.7828 24.9476 39.4176 26.5824C41.0525 28.2173 42.7929 29.0864 44.1205 29.547C44.1736 29.5654 44.226 29.5832 44.2778 29.6003L45.5347 28.3434Z" fill="#CE7D63"/>
</svg>
