<svg width="56" height="57" viewBox="0 0 56 57" fill="none" xmlns="http://www.w3.org/2000/svg">
<rect x="0.5" y="1" width="55" height="55" rx="9.5" fill="#1F1F1F"/>
<rect x="0.5" y="1" width="55" height="55" rx="9.5" stroke="#333333"/>
<path fill-rule="evenodd" clip-rule="evenodd" d="M20.0338 18.2001C18.667 19.5669 18.667 21.7668 18.667 26.1666V30.8333C18.667 35.233 18.667 37.4329 20.0338 38.7998C21.4007 40.1666 23.6006 40.1666 28.0003 40.1666C32.4001 40.1666 34.6 40.1666 35.9668 38.7998C37.3337 37.4329 37.3337 35.233 37.3337 30.8333V26.1666C37.3337 21.7668 37.3337 19.5669 35.9668 18.2001C34.6 16.8333 32.4001 16.8333 28.0003 16.8333C23.6006 16.8333 21.4007 16.8333 20.0338 18.2001ZM24.5003 19.4583C24.0171 19.4583 23.6253 19.85 23.6253 20.3333C23.6253 20.8165 24.0171 21.2083 24.5003 21.2083H31.5003C31.9836 21.2083 32.3753 20.8165 32.3753 20.3333C32.3753 19.85 31.9836 19.4583 31.5003 19.4583H24.5003ZM28.0003 36.6666C29.289 36.6666 30.3337 35.6219 30.3337 34.3333C30.3337 33.0446 29.289 31.9999 28.0003 31.9999C26.7117 31.9999 25.667 33.0446 25.667 34.3333C25.667 35.6219 26.7117 36.6666 28.0003 36.6666Z" fill="#CE7D63"/>
</svg>
