<svg width="56" height="57" viewBox="0 0 56 57" fill="none" xmlns="http://www.w3.org/2000/svg">
<rect x="0.5" y="1" width="55" height="55" rx="9.5" fill="#1F1F1F"/>
<rect x="0.5" y="1" width="55" height="55" rx="9.5" stroke="#333333"/>
<path fill-rule="evenodd" clip-rule="evenodd" d="M39.6663 28.5C39.6663 34.9434 34.443 40.1667 27.9997 40.1667C21.5564 40.1667 16.333 34.9434 16.333 28.5C16.333 22.0567 21.5564 16.8334 27.9997 16.8334C34.443 16.8334 39.6663 22.0567 39.6663 28.5ZM29.7357 22.0203C30.2025 22.1453 30.4795 22.6251 30.3545 23.0919L27.3349 34.3611C27.2098 34.8278 26.73 35.1048 26.2633 34.9798C25.7965 34.8547 25.5195 34.3749 25.6445 33.9081L28.6641 22.639C28.7892 22.1722 29.269 21.8952 29.7357 22.0203ZM31.4643 24.3813C31.806 24.0396 32.36 24.0396 32.7017 24.3813L32.9448 24.6244C33.686 25.3656 34.3041 25.9836 34.7288 26.5403C35.1771 27.1278 35.4915 27.7486 35.4915 28.5C35.4915 29.2515 35.1771 29.8723 34.7288 30.4598C34.3041 31.0165 33.686 31.6345 32.9448 32.3757L32.7017 32.6188C32.36 32.9605 31.806 32.9605 31.4643 32.6188C31.1226 32.2771 31.1226 31.723 31.4643 31.3813L31.6645 31.1812C32.4597 30.3859 32.9926 29.8504 33.3375 29.3983C33.667 28.9664 33.7415 28.7151 33.7415 28.5C33.7415 28.285 33.667 28.0337 33.3375 27.6018C32.9926 27.1497 32.4597 26.6142 31.6645 25.8189L31.4643 25.6188C31.1226 25.2771 31.1226 24.723 31.4643 24.3813ZM23.2978 24.3813C23.6395 24.0396 24.1936 24.0396 24.5353 24.3813C24.877 24.723 24.877 25.2771 24.5353 25.6188L24.3351 25.8189C23.5398 26.6142 23.0069 27.1497 22.662 27.6018C22.3325 28.0337 22.2581 28.285 22.2581 28.5C22.2581 28.7151 22.3325 28.9664 22.662 29.3983C23.0069 29.8504 23.5398 30.3859 24.3351 31.1812L24.5353 31.3813C24.877 31.723 24.877 32.2771 24.5353 32.6188C24.1936 32.9605 23.6395 32.9605 23.2978 32.6188L23.0548 32.3757C22.3135 31.6345 21.6954 31.0165 21.2707 30.4598C20.8225 29.8723 20.5081 29.2515 20.5081 28.5C20.5081 27.7486 20.8225 27.1278 21.2707 26.5403C21.6954 25.9836 22.3135 25.3656 23.0548 24.6244L23.2978 24.3813Z" fill="#CE7D63"/>
</svg>
